# Blender v2.79 (sub 0) OBJ File: ''
# www.blender.org
mtllib kanister.mtl
o Cylinder
v -0.769401 1.722973 -1.034149
v -0.769401 1.799350 -0.900783
v -0.769401 1.761161 -1.016281
v -0.769401 1.789117 -0.967466
v -0.769401 1.722973 2.475035
v -0.769401 1.799350 2.341670
v -0.769401 1.761161 2.457168
v -0.769401 1.789117 2.408353
v -0.589211 1.705226 -1.034149
v -0.574310 1.780135 -0.900783
v -0.581761 1.742680 -1.016281
v -0.576307 1.770099 -0.967466
v -0.589211 1.705225 2.475035
v -0.574310 1.780135 2.341670
v -0.581761 1.742680 2.457168
v -0.576307 1.770099 2.408353
v -0.415946 1.652666 -1.034149
v -0.386717 1.723229 -0.900783
v -0.401331 1.687948 -1.016281
v -0.390633 1.713776 -0.967466
v -0.415946 1.652666 2.475035
v -0.386717 1.723229 2.341670
v -0.401331 1.687948 2.457168
v -0.390633 1.713776 2.408353
v -0.256263 1.567314 -1.034149
v -0.213830 1.630820 -0.900783
v -0.235047 1.599067 -1.016281
v -0.219515 1.622311 -0.967466
v -0.256263 1.567314 2.475035
v -0.213830 1.630819 2.341670
v -0.235047 1.599067 2.457168
v -0.219515 1.622311 2.408353
v -0.116301 1.452450 -1.034149
v -0.062294 1.506457 -0.900783
v -0.089297 1.479453 -1.016281
v -0.069529 1.499221 -0.967466
v -0.116301 1.452450 2.475035
v -0.062294 1.506457 2.341670
v -0.089297 1.479453 2.457168
v -0.069529 1.499221 2.408353
v -0.001436 1.312487 -1.034149
v 0.062069 1.354920 -0.900783
v 0.030316 1.333704 -1.016281
v 0.053561 1.349235 -0.967466
v -0.001436 1.312487 2.475035
v 0.062069 1.354920 2.341670
v 0.030316 1.333704 2.457168
v 0.053561 1.349235 2.408353
v 0.083916 1.152805 -1.034149
v 0.154479 1.182033 -0.900783
v 0.119197 1.167419 -1.016281
v 0.145025 1.178118 -0.967466
v 0.083916 1.152805 2.475035
v 0.154479 1.182033 2.341670
v 0.119197 1.167419 2.457168
v 0.145025 1.178117 2.408353
v 0.136475 0.979540 -1.034149
v 0.211385 0.994440 -0.900783
v 0.173930 0.986990 -1.016281
v 0.201349 0.992444 -0.967466
v 0.136475 0.979540 2.475035
v 0.211385 0.994440 2.341670
v 0.173930 0.986990 2.457168
v 0.201349 0.992444 2.408353
v 0.154222 0.799350 -1.034149
v 0.230599 0.799350 -0.900783
v 0.192411 0.799350 -1.016281
v 0.220367 0.799350 -0.967466
v 0.154222 0.799350 2.475035
v 0.230599 0.799350 2.341670
v 0.192411 0.799350 2.457168
v 0.220367 0.799350 2.408353
v 0.136475 0.619160 -1.034149
v 0.211385 0.604260 -0.900783
v 0.173930 0.611710 -1.016281
v 0.201349 0.606256 -0.967466
v 0.136475 0.619160 2.475035
v 0.211385 0.604260 2.341670
v 0.173930 0.611710 2.457168
v 0.201349 0.606256 2.408353
v 0.083916 0.445895 -1.034149
v 0.154479 0.416667 -0.900783
v 0.119197 0.431281 -1.016281
v 0.145025 0.420582 -0.967466
v 0.083916 0.445895 2.475035
v 0.154479 0.416667 2.341670
v 0.119197 0.431281 2.457168
v 0.145025 0.420582 2.408353
v -0.001436 0.286213 -1.034149
v 0.062069 0.243780 -0.900783
v 0.030316 0.264996 -1.016281
v 0.053561 0.249465 -0.967466
v -0.001436 0.286213 2.475035
v 0.062069 0.243780 2.341670
v 0.030316 0.264996 2.457168
v 0.053561 0.249465 2.408353
v -0.116301 0.146250 -1.034149
v -0.062294 0.092243 -0.900783
v -0.089297 0.119247 -1.016281
v -0.069529 0.099479 -0.967466
v -0.116301 0.146250 2.475035
v -0.062294 0.092243 2.341670
v -0.089297 0.119246 2.457168
v -0.069529 0.099479 2.408353
v -0.256263 0.031385 -1.034149
v -0.213831 -0.032120 -0.900783
v -0.235047 -0.000367 -1.016281
v -0.219515 -0.023612 -0.967466
v -0.256263 0.031385 2.475035
v -0.213831 -0.032120 2.341670
v -0.235047 -0.000367 2.457168
v -0.219515 -0.023612 2.408353
v -0.415946 -0.053966 -1.034149
v -0.386717 -0.124530 -0.900783
v -0.401332 -0.089248 -1.016281
v -0.390633 -0.115076 -0.967466
v -0.415946 -0.053967 2.475035
v -0.386717 -0.124530 2.341670
v -0.401332 -0.089248 2.457168
v -0.390633 -0.115076 2.408353
v -0.589211 -0.106526 -1.034149
v -0.574311 -0.181435 -0.900783
v -0.581761 -0.143981 -1.016281
v -0.576307 -0.171399 -0.967466
v -0.589211 -0.106526 2.475035
v -0.574311 -0.181436 2.341670
v -0.581761 -0.143981 2.457168
v -0.576307 -0.171400 2.408353
v -0.769401 -0.124273 -1.034149
v -0.769401 -0.200650 -0.900783
v -0.769401 -0.162462 -1.016281
v -0.769401 -0.190418 -0.967466
v -0.769401 -0.124273 2.475035
v -0.769401 -0.200650 2.341670
v -0.769401 -0.162462 2.457168
v -0.769401 -0.190418 2.408353
v -0.949591 -0.106526 -1.034149
v -0.964491 -0.181435 -0.900783
v -0.957041 -0.143981 -1.016281
v -0.962495 -0.171399 -0.967466
v -0.949591 -0.106526 2.475035
v -0.964491 -0.181435 2.341670
v -0.957041 -0.143981 2.457168
v -0.962495 -0.171399 2.408353
v -1.122856 -0.053966 -1.034149
v -1.152085 -0.124529 -0.900783
v -1.137470 -0.089248 -1.016281
v -1.148169 -0.115076 -0.967466
v -1.122856 -0.053966 2.475035
v -1.152085 -0.124530 2.341670
v -1.137470 -0.089248 2.457168
v -1.148169 -0.115076 2.408353
v -1.282539 0.031386 -1.034149
v -1.324971 -0.032119 -0.900783
v -1.303755 -0.000367 -1.016281
v -1.319287 -0.023611 -0.967466
v -1.282539 0.031386 2.475035
v -1.324971 -0.032120 2.341670
v -1.303755 -0.000367 2.457168
v -1.319287 -0.023611 2.408353
v -1.422501 0.146250 -1.034149
v -1.476508 0.092244 -0.900783
v -1.449504 0.119247 -1.016281
v -1.469272 0.099479 -0.967466
v -1.422501 0.146250 2.475035
v -1.476508 0.092243 2.341670
v -1.449504 0.119247 2.457168
v -1.469272 0.099479 2.408353
v -1.537366 0.286213 -1.034149
v -1.600871 0.243780 -0.900783
v -1.569118 0.264997 -1.016281
v -1.592363 0.249465 -0.967466
v -1.537366 0.286213 2.475035
v -1.600871 0.243780 2.341670
v -1.569118 0.264997 2.457168
v -1.592363 0.249465 2.408353
v -1.622717 0.445896 -1.034149
v -1.693281 0.416667 -0.900783
v -1.657999 0.431281 -1.016281
v -1.683827 0.420583 -0.967466
v -1.622717 0.445895 2.475035
v -1.693281 0.416667 2.341670
v -1.657999 0.431281 2.457168
v -1.683827 0.420583 2.408353
v -1.675277 0.619161 -1.034149
v -1.750186 0.604260 -0.900783
v -1.712731 0.611711 -1.016281
v -1.740150 0.606257 -0.967466
v -1.675277 0.619161 2.475035
v -1.750186 0.604260 2.341670
v -1.712731 0.611710 2.457168
v -1.740150 0.606257 2.408353
v -1.693024 0.799351 -1.034149
v -1.769401 0.799351 -0.900783
v -1.731212 0.799351 -1.016281
v -1.759168 0.799351 -0.967466
v -1.693024 0.799351 2.475035
v -1.769401 0.799351 2.341670
v -1.731212 0.799351 2.457168
v -1.759168 0.799351 2.408353
v -1.675276 0.979541 -1.034149
v -1.750186 0.994441 -0.900783
v -1.712731 0.986991 -1.016281
v -1.740150 0.992445 -0.967466
v -1.675276 0.979540 2.475035
v -1.750186 0.994441 2.341670
v -1.712731 0.986991 2.457168
v -1.740150 0.992445 2.408353
v -1.622716 1.152806 -1.034149
v -1.693280 1.182034 -0.900783
v -1.657998 1.167420 -1.016281
v -1.683826 1.178118 -0.967466
v -1.622716 1.152806 2.475035
v -1.693280 1.182034 2.341670
v -1.657998 1.167420 2.457168
v -1.683826 1.178118 2.408353
v -1.537364 1.312488 -1.034149
v -1.600870 1.354921 -0.900783
v -1.569117 1.333705 -1.016281
v -1.592362 1.349236 -0.967466
v -1.537364 1.312488 2.475035
v -1.600870 1.354921 2.341670
v -1.569117 1.333704 2.457168
v -1.592362 1.349236 2.408353
v -1.422500 1.452451 -1.034149
v -1.476507 1.506458 -0.900783
v -1.449503 1.479454 -1.016281
v -1.469271 1.499222 -0.967466
v -1.422500 1.452451 2.475035
v -1.476507 1.506457 2.341670
v -1.449503 1.479454 2.457168
v -1.469271 1.499222 2.408353
v -1.282537 1.567315 -1.034149
v -1.324970 1.630820 -0.900783
v -1.303754 1.599068 -1.016281
v -1.319285 1.622312 -0.967466
v -1.282537 1.567315 2.475035
v -1.324970 1.630820 2.341670
v -1.303754 1.599067 2.457168
v -1.319285 1.622312 2.408353
v -1.122855 1.652667 -1.034149
v -1.152083 1.723230 -0.900783
v -1.137469 1.687948 -1.016281
v -1.148167 1.713776 -0.967466
v -1.122855 1.652667 2.475035
v -1.152083 1.723230 2.341670
v -1.137469 1.687948 2.457168
v -1.148167 1.713776 2.408353
v -0.949589 1.705226 -1.034149
v -0.964490 1.780135 -0.900783
v -0.957039 1.742681 -1.016281
v -0.962493 1.770099 -0.967466
v -0.949589 1.705226 2.475035
v -0.964490 1.780135 2.341670
v -0.957039 1.742681 2.457168
v -0.962493 1.770099 2.408353
vn -0.1945 0.9780 -0.0757
vn -0.1945 0.9780 0.0757
vn 0.0000 0.9971 0.0757
vn 0.0000 0.9971 -0.0757
vn 0.3816 0.9212 -0.0757
vn 0.3816 0.9212 0.0757
vn 0.5540 0.8291 0.0757
vn 0.5540 0.8291 -0.0757
vn 0.7051 0.7051 0.0757
vn 0.7051 0.7051 -0.0757
vn 0.8291 0.5540 0.0757
vn 0.8291 0.5540 -0.0757
vn 0.9212 0.3816 0.0757
vn 0.9212 0.3816 -0.0757
vn 0.9780 0.1945 0.0757
vn 0.9780 0.1945 -0.0757
vn 0.9971 0.0000 0.0757
vn 0.9971 0.0000 -0.0757
vn 0.9780 -0.1945 0.0757
vn 0.9780 -0.1945 -0.0757
vn 0.9212 -0.3816 0.0757
vn 0.9212 -0.3816 -0.0757
vn 0.8291 -0.5540 0.0757
vn 0.8291 -0.5540 -0.0757
vn 0.7051 -0.7051 0.0757
vn 0.7051 -0.7051 -0.0757
vn 0.5540 -0.8291 0.0757
vn 0.5540 -0.8291 -0.0757
vn 0.3816 -0.9212 0.0757
vn 0.3816 -0.9212 -0.0757
vn 0.1945 -0.9780 0.0757
vn 0.1945 -0.9780 -0.0757
vn 0.0000 -0.9971 0.0757
vn 0.0000 -0.9971 -0.0757
vn -0.1945 -0.9780 0.0757
vn -0.1945 -0.9780 -0.0757
vn -0.3816 -0.9212 0.0757
vn -0.3816 -0.9212 -0.0757
vn -0.5540 -0.8291 0.0757
vn -0.5540 -0.8291 -0.0757
vn -0.7051 -0.7051 0.0757
vn -0.7051 -0.7051 -0.0757
vn -0.8291 -0.5540 0.0757
vn -0.8291 -0.5540 -0.0757
vn -0.9212 -0.3816 0.0757
vn -0.9212 -0.3816 -0.0757
vn -0.9780 -0.1945 0.0757
vn -0.9780 -0.1945 -0.0757
vn -0.9971 0.0000 0.0757
vn -0.9971 0.0000 -0.0757
vn -0.9780 0.1945 0.0757
vn -0.9780 0.1945 -0.0757
vn -0.9212 0.3816 0.0757
vn -0.9212 0.3816 -0.0757
vn -0.8291 0.5540 0.0757
vn -0.8291 0.5540 -0.0757
vn -0.7051 0.7051 0.0757
vn -0.7051 0.7051 -0.0757
vn -0.5540 0.8291 0.0757
vn -0.5540 0.8291 -0.0757
vn -0.3816 0.9212 0.0757
vn -0.3816 0.9212 -0.0757
vn 0.1945 0.9780 -0.0757
vn 0.1945 0.9780 0.0757
vn 0.0448 0.2255 0.9732
vn 0.0000 0.2299 0.9732
vn -0.0448 0.2255 0.9732
vn -0.0880 0.2124 0.9732
vn -0.1277 0.1912 0.9732
vn -0.1626 0.1626 0.9732
vn -0.1912 0.1277 0.9732
vn -0.2124 0.0880 0.9732
vn -0.2255 0.0448 0.9732
vn -0.2299 0.0000 0.9732
vn -0.2255 -0.0448 0.9732
vn -0.2124 -0.0880 0.9732
vn -0.1912 -0.1277 0.9732
vn -0.1626 -0.1626 0.9732
vn -0.1277 -0.1912 0.9732
vn -0.0880 -0.2124 0.9732
vn -0.0448 -0.2255 0.9732
vn 0.0000 -0.2299 0.9732
vn 0.0448 -0.2255 0.9732
vn 0.0880 -0.2124 0.9732
vn 0.1277 -0.1912 0.9732
vn 0.1626 -0.1626 0.9732
vn 0.1912 -0.1277 0.9732
vn 0.2124 -0.0880 0.9732
vn 0.2255 -0.0448 0.9732
vn 0.2299 0.0000 0.9732
vn 0.2255 0.0448 0.9732
vn 0.2124 0.0880 0.9732
vn 0.1912 0.1277 0.9732
vn 0.1626 0.1626 0.9732
vn 0.1277 0.1912 0.9732
vn 0.0880 0.2124 0.9732
vn 0.1844 0.9271 -0.3264
vn 0.0000 0.9452 -0.3264
vn 0.1341 0.6741 -0.7264
vn 0.0000 0.6873 -0.7264
vn 0.0448 0.2255 -0.9732
vn 0.0000 0.2299 -0.9732
vn 0.0000 0.9452 0.3264
vn 0.1844 0.9271 0.3264
vn 0.0000 0.6873 0.7264
vn 0.1341 0.6741 0.7264
vn 0.3617 0.8733 -0.3264
vn 0.2630 0.6350 -0.7264
vn 0.0880 0.2124 -0.9732
vn 0.3617 0.8733 0.3264
vn 0.2630 0.6350 0.7264
vn 0.5251 0.7859 -0.3264
vn 0.3818 0.5715 -0.7264
vn 0.1277 0.1912 -0.9732
vn 0.5251 0.7859 0.3264
vn 0.3818 0.5715 0.7264
vn 0.6684 0.6684 -0.3264
vn 0.4860 0.4860 -0.7264
vn 0.1626 0.1626 -0.9732
vn 0.6684 0.6684 0.3264
vn 0.4860 0.4860 0.7264
vn 0.7859 0.5251 -0.3264
vn 0.5715 0.3818 -0.7264
vn 0.1912 0.1277 -0.9732
vn 0.7859 0.5251 0.3264
vn 0.5715 0.3818 0.7264
vn 0.8733 0.3617 -0.3264
vn 0.6350 0.2630 -0.7264
vn 0.2124 0.0880 -0.9732
vn 0.8733 0.3617 0.3264
vn 0.6350 0.2630 0.7264
vn 0.9271 0.1844 -0.3264
vn 0.6741 0.1341 -0.7264
vn 0.2255 0.0448 -0.9732
vn 0.9271 0.1844 0.3264
vn 0.6741 0.1341 0.7264
vn 0.9452 0.0000 -0.3264
vn 0.6873 0.0000 -0.7264
vn 0.2299 0.0000 -0.9732
vn 0.9452 0.0000 0.3264
vn 0.6873 0.0000 0.7264
vn 0.9271 -0.1844 -0.3264
vn 0.6741 -0.1341 -0.7264
vn 0.2255 -0.0448 -0.9732
vn 0.9271 -0.1844 0.3264
vn 0.6741 -0.1341 0.7264
vn 0.8733 -0.3617 -0.3264
vn 0.6350 -0.2630 -0.7264
vn 0.2124 -0.0880 -0.9732
vn 0.8733 -0.3617 0.3264
vn 0.6350 -0.2630 0.7264
vn 0.7859 -0.5251 -0.3264
vn 0.5715 -0.3818 -0.7264
vn 0.1912 -0.1277 -0.9732
vn 0.7859 -0.5251 0.3264
vn 0.5715 -0.3818 0.7264
vn 0.6684 -0.6684 -0.3264
vn 0.4860 -0.4860 -0.7264
vn 0.1626 -0.1626 -0.9732
vn 0.6684 -0.6684 0.3264
vn 0.4860 -0.4860 0.7264
vn 0.5251 -0.7859 -0.3264
vn 0.3818 -0.5715 -0.7264
vn 0.1277 -0.1912 -0.9732
vn 0.5251 -0.7859 0.3264
vn 0.3818 -0.5715 0.7264
vn 0.3617 -0.8733 -0.3264
vn 0.2630 -0.6350 -0.7264
vn 0.0880 -0.2124 -0.9732
vn 0.3617 -0.8733 0.3264
vn 0.2630 -0.6350 0.7264
vn 0.1844 -0.9271 -0.3264
vn 0.1341 -0.6741 -0.7264
vn 0.0448 -0.2255 -0.9732
vn 0.1844 -0.9271 0.3264
vn 0.1341 -0.6741 0.7264
vn 0.0000 -0.9452 -0.3264
vn 0.0000 -0.6873 -0.7264
vn 0.0000 -0.2299 -0.9732
vn 0.0000 -0.9452 0.3264
vn 0.0000 -0.6873 0.7264
vn -0.1844 -0.9271 -0.3264
vn -0.1341 -0.6741 -0.7264
vn -0.0448 -0.2255 -0.9732
vn -0.1844 -0.9271 0.3264
vn -0.1341 -0.6741 0.7264
vn -0.3617 -0.8733 -0.3264
vn -0.2630 -0.6350 -0.7264
vn -0.0880 -0.2124 -0.9732
vn -0.3617 -0.8733 0.3264
vn -0.2630 -0.6350 0.7264
vn -0.5251 -0.7859 -0.3264
vn -0.3818 -0.5715 -0.7264
vn -0.1277 -0.1912 -0.9732
vn -0.5251 -0.7859 0.3264
vn -0.3818 -0.5715 0.7264
vn -0.6684 -0.6684 -0.3264
vn -0.4860 -0.4860 -0.7264
vn -0.1626 -0.1626 -0.9732
vn -0.6684 -0.6684 0.3264
vn -0.4860 -0.4860 0.7264
vn -0.7859 -0.5251 -0.3264
vn -0.5715 -0.3818 -0.7264
vn -0.1912 -0.1277 -0.9732
vn -0.7859 -0.5251 0.3264
vn -0.5715 -0.3818 0.7264
vn -0.8733 -0.3617 -0.3264
vn -0.6350 -0.2630 -0.7264
vn -0.2124 -0.0880 -0.9732
vn -0.8733 -0.3617 0.3264
vn -0.6350 -0.2630 0.7264
vn -0.9271 -0.1844 -0.3264
vn -0.6741 -0.1341 -0.7264
vn -0.2255 -0.0448 -0.9732
vn -0.9271 -0.1844 0.3264
vn -0.6741 -0.1341 0.7264
vn -0.9452 0.0000 -0.3264
vn -0.6873 0.0000 -0.7264
vn -0.2299 0.0000 -0.9732
vn -0.9452 0.0000 0.3264
vn -0.6873 0.0000 0.7264
vn -0.9271 0.1844 -0.3264
vn -0.6741 0.1341 -0.7264
vn -0.2255 0.0448 -0.9732
vn -0.9271 0.1844 0.3264
vn -0.6741 0.1341 0.7264
vn -0.8733 0.3617 -0.3264
vn -0.6350 0.2630 -0.7264
vn -0.2124 0.0880 -0.9732
vn -0.8733 0.3617 0.3264
vn -0.6350 0.2630 0.7264
vn -0.7859 0.5251 -0.3264
vn -0.5715 0.3818 -0.7264
vn -0.1912 0.1277 -0.9732
vn -0.7859 0.5251 0.3264
vn -0.5715 0.3818 0.7264
vn -0.6684 0.6684 -0.3264
vn -0.4860 0.4860 -0.7264
vn -0.1626 0.1626 -0.9732
vn -0.6684 0.6684 0.3264
vn -0.4860 0.4860 0.7264
vn -0.5251 0.7859 -0.3264
vn -0.3818 0.5715 -0.7264
vn -0.1277 0.1912 -0.9732
vn -0.5251 0.7859 0.3264
vn -0.3818 0.5715 0.7264
vn -0.3617 0.8733 -0.3264
vn -0.2630 0.6350 -0.7264
vn -0.0880 0.2124 -0.9732
vn -0.3617 0.8733 0.3264
vn -0.2630 0.6350 0.7264
vn -0.1844 0.9271 -0.3264
vn -0.1341 0.6741 -0.7264
vn -0.0448 0.2255 -0.9732
vn -0.1844 0.9271 0.3264
vn -0.1341 0.6741 0.7264
usemtl None
s 1
f 250//1 254//2 6//3 2//4
f 18//5 22//6 30//7 26//8
f 26//8 30//7 38//9 34//10
f 34//10 38//9 46//11 42//12
f 42//12 46//11 54//13 50//14
f 50//14 54//13 62//15 58//16
f 58//16 62//15 70//17 66//18
f 66//18 70//17 78//19 74//20
f 74//20 78//19 86//21 82//22
f 82//22 86//21 94//23 90//24
f 90//24 94//23 102//25 98//26
f 98//26 102//25 110//27 106//28
f 106//28 110//27 118//29 114//30
f 114//30 118//29 126//31 122//32
f 122//32 126//31 134//33 130//34
f 130//34 134//33 142//35 138//36
f 138//36 142//35 150//37 146//38
f 146//38 150//37 158//39 154//40
f 154//40 158//39 166//41 162//42
f 162//42 166//41 174//43 170//44
f 170//44 174//43 182//45 178//46
f 178//46 182//45 190//47 186//48
f 186//48 190//47 198//49 194//50
f 194//50 198//49 206//51 202//52
f 202//52 206//51 214//53 210//54
f 210//54 214//53 222//55 218//56
f 218//56 222//55 230//57 226//58
f 226//58 230//57 238//59 234//60
f 234//60 238//59 246//61 242//62
f 242//62 246//61 254//2 250//1
f 10//63 14//64 22//6 18//5
f 13//65 5//66 253//67 245//68 237//69 229//70 221//71 213//72 205//73 197//74 189//75 181//76 173//77 165//78 157//79 149//80 141//81 133//82 125//83 117//84 109//85 101//86 93//87 85//88 77//89 69//90 61//91 53//92 45//93 37//94 29//95 21//96
f 2//4 6//3 14//64 10//63
f 2//4 10//63 12//97 4//98
f 4//98 12//97 11//99 3//100
f 3//100 11//99 9//101 1//102
f 14//64 6//3 8//103 16//104
f 16//104 8//103 7//105 15//106
f 15//106 7//105 5//66 13//65
f 10//63 18//5 20//107 12//97
f 12//97 20//107 19//108 11//99
f 11//99 19//108 17//109 9//101
f 22//6 14//64 16//104 24//110
f 24//110 16//104 15//106 23//111
f 23//111 15//106 13//65 21//96
f 18//5 26//8 28//112 20//107
f 20//107 28//112 27//113 19//108
f 19//108 27//113 25//114 17//109
f 30//7 22//6 24//110 32//115
f 32//115 24//110 23//111 31//116
f 31//116 23//111 21//96 29//95
f 26//8 34//10 36//117 28//112
f 28//112 36//117 35//118 27//113
f 27//113 35//118 33//119 25//114
f 38//9 30//7 32//115 40//120
f 40//120 32//115 31//116 39//121
f 39//121 31//116 29//95 37//94
f 34//10 42//12 44//122 36//117
f 36//117 44//122 43//123 35//118
f 35//118 43//123 41//124 33//119
f 46//11 38//9 40//120 48//125
f 48//125 40//120 39//121 47//126
f 47//126 39//121 37//94 45//93
f 42//12 50//14 52//127 44//122
f 44//122 52//127 51//128 43//123
f 43//123 51//128 49//129 41//124
f 54//13 46//11 48//125 56//130
f 56//130 48//125 47//126 55//131
f 55//131 47//126 45//93 53//92
f 50//14 58//16 60//132 52//127
f 52//127 60//132 59//133 51//128
f 51//128 59//133 57//134 49//129
f 62//15 54//13 56//130 64//135
f 64//135 56//130 55//131 63//136
f 63//136 55//131 53//92 61//91
f 58//16 66//18 68//137 60//132
f 60//132 68//137 67//138 59//133
f 59//133 67//138 65//139 57//134
f 70//17 62//15 64//135 72//140
f 72//140 64//135 63//136 71//141
f 71//141 63//136 61//91 69//90
f 66//18 74//20 76//142 68//137
f 68//137 76//142 75//143 67//138
f 67//138 75//143 73//144 65//139
f 78//19 70//17 72//140 80//145
f 80//145 72//140 71//141 79//146
f 79//146 71//141 69//90 77//89
f 74//20 82//22 84//147 76//142
f 76//142 84//147 83//148 75//143
f 75//143 83//148 81//149 73//144
f 86//21 78//19 80//145 88//150
f 88//150 80//145 79//146 87//151
f 87//151 79//146 77//89 85//88
f 82//22 90//24 92//152 84//147
f 84//147 92//152 91//153 83//148
f 83//148 91//153 89//154 81//149
f 94//23 86//21 88//150 96//155
f 96//155 88//150 87//151 95//156
f 95//156 87//151 85//88 93//87
f 90//24 98//26 100//157 92//152
f 92//152 100//157 99//158 91//153
f 91//153 99//158 97//159 89//154
f 102//25 94//23 96//155 104//160
f 104//160 96//155 95//156 103//161
f 103//161 95//156 93//87 101//86
f 98//26 106//28 108//162 100//157
f 100//157 108//162 107//163 99//158
f 99//158 107//163 105//164 97//159
f 110//27 102//25 104//160 112//165
f 112//165 104//160 103//161 111//166
f 111//166 103//161 101//86 109//85
f 106//28 114//30 116//167 108//162
f 108//162 116//167 115//168 107//163
f 107//163 115//168 113//169 105//164
f 118//29 110//27 112//165 120//170
f 120//170 112//165 111//166 119//171
f 119//171 111//166 109//85 117//84
f 114//30 122//32 124//172 116//167
f 116//167 124//172 123//173 115//168
f 115//168 123//173 121//174 113//169
f 126//31 118//29 120//170 128//175
f 128//175 120//170 119//171 127//176
f 127//176 119//171 117//84 125//83
f 122//32 130//34 132//177 124//172
f 124//172 132//177 131//178 123//173
f 123//173 131//178 129//179 121//174
f 134//33 126//31 128//175 136//180
f 136//180 128//175 127//176 135//181
f 135//181 127//176 125//83 133//82
f 130//34 138//36 140//182 132//177
f 132//177 140//182 139//183 131//178
f 131//178 139//183 137//184 129//179
f 142//35 134//33 136//180 144//185
f 144//185 136//180 135//181 143//186
f 143//186 135//181 133//82 141//81
f 138//36 146//38 148//187 140//182
f 140//182 148//187 147//188 139//183
f 139//183 147//188 145//189 137//184
f 150//37 142//35 144//185 152//190
f 152//190 144//185 143//186 151//191
f 151//191 143//186 141//81 149//80
f 146//38 154//40 156//192 148//187
f 148//187 156//192 155//193 147//188
f 147//188 155//193 153//194 145//189
f 158//39 150//37 152//190 160//195
f 160//195 152//190 151//191 159//196
f 159//196 151//191 149//80 157//79
f 154//40 162//42 164//197 156//192
f 156//192 164//197 163//198 155//193
f 155//193 163//198 161//199 153//194
f 166//41 158//39 160//195 168//200
f 168//200 160//195 159//196 167//201
f 167//201 159//196 157//79 165//78
f 162//42 170//44 172//202 164//197
f 164//197 172//202 171//203 163//198
f 163//198 171//203 169//204 161//199
f 174//43 166//41 168//200 176//205
f 176//205 168//200 167//201 175//206
f 175//206 167//201 165//78 173//77
f 170//44 178//46 180//207 172//202
f 172//202 180//207 179//208 171//203
f 171//203 179//208 177//209 169//204
f 182//45 174//43 176//205 184//210
f 184//210 176//205 175//206 183//211
f 183//211 175//206 173//77 181//76
f 178//46 186//48 188//212 180//207
f 180//207 188//212 187//213 179//208
f 179//208 187//213 185//214 177//209
f 190//47 182//45 184//210 192//215
f 192//215 184//210 183//211 191//216
f 191//216 183//211 181//76 189//75
f 186//48 194//50 196//217 188//212
f 188//212 196//217 195//218 187//213
f 187//213 195//218 193//219 185//214
f 198//49 190//47 192//215 200//220
f 200//220 192//215 191//216 199//221
f 199//221 191//216 189//75 197//74
f 194//50 202//52 204//222 196//217
f 196//217 204//222 203//223 195//218
f 195//218 203//223 201//224 193//219
f 206//51 198//49 200//220 208//225
f 208//225 200//220 199//221 207//226
f 207//226 199//221 197//74 205//73
f 202//52 210//54 212//227 204//222
f 204//222 212//227 211//228 203//223
f 203//223 211//228 209//229 201//224
f 214//53 206//51 208//225 216//230
f 216//230 208//225 207//226 215//231
f 215//231 207//226 205//73 213//72
f 210//54 218//56 220//232 212//227
f 212//227 220//232 219//233 211//228
f 211//228 219//233 217//234 209//229
f 222//55 214//53 216//230 224//235
f 224//235 216//230 215//231 223//236
f 223//236 215//231 213//72 221//71
f 218//56 226//58 228//237 220//232
f 220//232 228//237 227//238 219//233
f 219//233 227//238 225//239 217//234
f 230//57 222//55 224//235 232//240
f 232//240 224//235 223//236 231//241
f 231//241 223//236 221//71 229//70
f 226//58 234//60 236//242 228//237
f 228//237 236//242 235//243 227//238
f 227//238 235//243 233//244 225//239
f 238//59 230//57 232//240 240//245
f 240//245 232//240 231//241 239//246
f 239//246 231//241 229//70 237//69
f 234//60 242//62 244//247 236//242
f 236//242 244//247 243//248 235//243
f 235//243 243//248 241//249 233//244
f 246//61 238//59 240//245 248//250
f 248//250 240//245 239//246 247//251
f 247//251 239//246 237//69 245//68
f 242//62 250//1 252//252 244//247
f 244//247 252//252 251//253 243//248
f 243//248 251//253 249//254 241//249
f 254//2 246//61 248//250 256//255
f 256//255 248//250 247//251 255//256
f 255//256 247//251 245//68 253//67
f 250//1 2//4 4//98 252//252
f 252//252 4//98 3//100 251//253
f 251//253 3//100 1//102 249//254
f 6//3 254//2 256//255 8//103
f 8//103 256//255 255//256 7//105
f 7//105 255//256 253//67 5//66
f 1//102 9//101 17//109 25//114 33//119 41//124 49//129 57//134 65//139 73//144 81//149 89//154 97//159 105//164 113//169 121//174 129//179 137//184 145//189 153//194 161//199 169//204 177//209 185//214 193//219 201//224 209//229 217//234 225//239 233//244 241//249 249//254
